<svg xmlns="http://www.w3.org/2000/svg" width="43.641" height="43.987" viewBox="0 0 43.641 43.987">
  <g id="icon3" transform="translate(-567.366 -5.171)">
    <path id="Path_53" data-name="Path 53" d="M611.007,175.589l-1.3-.094c0-.21,0-.418,0-.626.006-.551.01-.883-.273-1.164a.935.935,0,0,0-.664-.253,1.342,1.342,0,0,0-.309-1.029,1.372,1.372,0,0,0-1.1-.286l-.3,0a1.1,1.1,0,0,0-1.338,1.337v2.008h-.308c-1.1,0-2.241.005-3.356-.007a.238.238,0,0,1-.028-.026,2.114,2.114,0,0,0-1.581-.692,1.933,1.933,0,0,0-1.453.681.29.29,0,0,1-.038.039.44.44,0,0,1-.129.01q-1.332,0-2.664,0h-.009c-1.087,0-2.212,0-3.325-.006a1.541,1.541,0,0,0-1.149.456,3.582,3.582,0,0,1-5,.006,1.678,1.678,0,0,0-1.088-.444c-1.046-.01-2.109-.012-3.142-.013-.97,0-1.974,0-2.96-.012a.285.285,0,0,1-.089-.048,2.239,2.239,0,0,0-1.572-.682H577.8a1.645,1.645,0,0,0-1.221.537c-.181.2-.325.208-.763.206h-.072l-1.365,0H572.66q0-.738-.006-1.476c0-.14,0-.263,0-.372.006-.525.01-.9-.292-1.207s-.681-.3-1.249-.3c-.121,0-.26,0-.419,0a1.073,1.073,0,0,0-.781.294,1.089,1.089,0,0,0-.3.8c0,.078,0,.156,0,.235-.717.066-.945.386-.945,1.228,0,.265,0,.53,0,.8l-1.3.092v2.021h1.3c0,.18,0,.352,0,.523a1.82,1.82,0,0,0,.248,1.162,1.05,1.05,0,0,0,.7.346q0,.142,0,.287a1.026,1.026,0,0,0,1.056,1.066c.114,0,.228,0,.343,0h.083c1.269,0,1.56-.294,1.56-1.574v-1.779h3.379q.022.043.049.086l.526.85.064.1c.8,1.3,1.632,2.642,2.482,3.948a4.28,4.28,0,0,0,1.185,1.152,2.385,2.385,0,0,0,2.043.385,2.437,2.437,0,0,0,1.485-1.32v3.692l-.724.1-.016,0c-.946.133-1.924.271-2.881.4a2.83,2.83,0,0,0-2.612,2.543l-.354,2.637q-.462,3.447-.926,6.9a2.761,2.761,0,0,0,2.282,3.121,3.035,3.035,0,0,0,.436.032,2.779,2.779,0,0,0,1.676-.549,2.719,2.719,0,0,0,1.063-1.807c.147-1.013.282-2.037.413-3.026q.09-.679.181-1.358l.269-1.979H595.7l.116.854c.246,1.817.49,3.619.731,5.423a2.752,2.752,0,0,0,3.14,2.417,2.662,2.662,0,0,0,1.779-1.025,2.818,2.818,0,0,0,.551-2.1l-.1-.731c-.2-1.478-.4-3.007-.6-4.51q-.076-.556-.149-1.113c-.15-1.128-.3-2.295-.492-3.441a2.608,2.608,0,0,0-2.187-2.209c-.4-.079-.79-.13-1.172-.18l-.019,0c-.146-.019-.292-.038-.437-.058l-2.355-.334v-3.675a2.417,2.417,0,0,0,1.443,1.29,2.377,2.377,0,0,0,2-.307,4.157,4.157,0,0,0,.9-.765,29.109,29.109,0,0,0,3.452-5.356l.038-.069h3.385v.189c0,.649,0,1.319,0,1.984a1.155,1.155,0,0,0,.321.877,1.114,1.114,0,0,0,.854.292c.215-.008.443-.005.664,0h.087a1.092,1.092,0,0,0,.812-.3,1.106,1.106,0,0,0,.309-.822q0-.108,0-.216c.722-.076.943-.408.943-1.279,0-.254,0-.508,0-.768h1.3Zm-16.632,4.32-1.191-1.589v9.366l.581.082,2.911.413c.156.022.313.042.472.063.36.047.733.1,1.083.165a1.272,1.272,0,0,1,1.141,1.125c.183,1.125.337,2.279.486,3.4l.009.067q.07.525.141,1.049c.2,1.505.407,3.037.6,4.518l.1.718a1.5,1.5,0,0,1-.288,1.124,1.348,1.348,0,0,1-.9.519,1.423,1.423,0,0,1-1.66-1.281c-.243-1.812-.488-3.624-.735-5.449l-.42-3.109-.495-.071-.841-.121c-.506-.073-1.012-.147-1.518-.217-.386-.054-.776-.1-1.154-.148h-.009l-.545-.068-.238-.031c-.594-.078-1.19-.166-1.765-.289a4.012,4.012,0,0,0-.845-.087,7.42,7.42,0,0,0-1.142.108c-1.381.214-2.787.409-4.147.6l-1.647.229c-.053.007-.1.017-.162.03l-.531.107-.573,4.22c-.061.454-.121.907-.182,1.364-.13.987-.265,2.008-.41,3.008a1.406,1.406,0,0,1-.546.937,1.507,1.507,0,0,1-1.13.268,1.434,1.434,0,0,1-1.163-1.636q.464-3.448.926-6.9l.354-2.638a1.5,1.5,0,0,1,1.474-1.407c.963-.127,1.944-.265,2.893-.4l.016,0,1.292-.181.57-.079v-9.252l-1.18,1.489c-.05.064-.1.121-.149.179a2.7,2.7,0,0,0-.355.485c-.255.472-.543,1.008-.778,1.57a1.2,1.2,0,0,1-.719.739,1.093,1.093,0,0,1-.92-.206,2.994,2.994,0,0,1-.825-.783c-.841-1.292-1.667-2.629-2.466-3.923-.2-.319-.394-.638-.588-.951-.008-.017-.025-.072-.038-.113-.018-.056-.036-.114-.057-.171l-.064-.173a1.942,1.942,0,0,0,.508-.406.332.332,0,0,1,.263-.106.929.929,0,0,1,.608.265h-.093l1.486,2.413,1.011,1.641.582.944.554-.961a7.5,7.5,0,0,1,2.669-2.811l1.109-.67.012.009a4.942,4.942,0,0,0,3.424,1.384,4.866,4.866,0,0,0,3.341-1.328l1.5,1a6.859,6.859,0,0,1,2.111,2.317l.74,1.245,3.149-5.16h-.077c.016-.017.032-.034.048-.053a.617.617,0,0,1,.47-.22.778.778,0,0,1,.586.264,1.614,1.614,0,0,0,.338.276l-.256.469a27.693,27.693,0,0,1-3.286,5.117,2.814,2.814,0,0,1-.607.517,1.081,1.081,0,0,1-.9.163,1.157,1.157,0,0,1-.686-.691c-.211-.493-.46-.963-.7-1.418l-.132-.25a2.72,2.72,0,0,0-.3-.437C594.475,180.038,594.427,179.978,594.375,179.909Zm-10.926,12.3c.513-.074,1.035-.143,1.541-.21l.014,0c1.139-.15,2.316-.305,3.47-.528a5.055,5.055,0,0,1,1.827.089c.277.046.563.094.857.124.194.02.388.043.583.067l.233.03c.549.071,1.1.151,1.638.231.424.063.861.128,1.3.187l0,.03H583.446Zm-1.072-14.553a8.974,8.974,0,0,0-.969,1.144l-.7-1.144Zm15.292.023-.791,1.3a8.328,8.328,0,0,0-1.09-1.3Z" transform="translate(0 -153.164)"/>
    <path id="Path_54" data-name="Path 54" d="M785.284,13.391c.077,0,.156.006.233.006a4.11,4.11,0,0,0,1.426-7.99c-.151-.053-.3-.1-.449-.144l-.2-.062-.094-.029h-1.241l-.094.03-.1.035c-.049.017-.095.032-.129.041A4.155,4.155,0,0,0,781.471,9.6,4.091,4.091,0,0,0,785.284,13.391Zm-.124-6.946H786l.12.037c.132.04.269.082.395.126a2.833,2.833,0,1,1-1.59-.093C785.013,6.495,785.088,6.47,785.16,6.445Z" transform="translate(-196.392 0)"/>
    <path id="Path_55" data-name="Path 55" d="M747.662,432.875c-.046.513-.094,1.023-.142,1.539-.117,1.255-.239,2.553-.328,3.833a2.4,2.4,0,0,0,1.073,2.13,4.094,4.094,0,0,0,.7.386c.084.039.171.08.251.121l.143.074h1.088l.1-.03a2.992,2.992,0,0,0,2.228-2.988c.027-.629.1-1.277.177-1.9.035-.3.076-.642.108-.971.047-.469.088-.927.132-1.412v-.008q.029-.322.059-.651l.067-.722h-5.6Zm2.008,6.761-.149-.07a3.024,3.024,0,0,1-.477-.256,1.1,1.1,0,0,1-.534-.97c.089-1.261.209-2.549.326-3.8l.006-.061q.041-.44.082-.881h2.938c-.042.46-.081.9-.126,1.34-.031.316-.069.637-.106.947-.077.651-.156,1.323-.185,2a1.688,1.688,0,0,1-1.21,1.753Z" transform="translate(-164.957 -391.801)"/>
    <path id="Path_56" data-name="Path 56" d="M848.182,435.02q-.049-.48-.1-.961c-.027-.27-.059-.537-.092-.8-.013-.107-.026-.214-.038-.319l-.069-.584h-5.46v.661c0,.043,0,.083,0,.121a2.462,2.462,0,0,0,.007.31c.048.48.1.967.154,1.44.113,1.03.23,2.1.3,3.138a3.035,3.035,0,0,0,2.234,2.98l.1.03h1.15l.178-.136.009-.007a2.7,2.7,0,0,0,1.9-3C848.375,436.93,848.277,435.959,848.182,435.02Zm-2.161,4.655-.01,0a.768.768,0,0,0-.077.032h-.517a1.712,1.712,0,0,1-1.216-1.769c-.067-1.075-.186-2.156-.3-3.206-.038-.348-.077-.7-.115-1.059h2.928c.02.17.04.343.057.513q.047.482.1.964c.094.932.191,1.9.268,2.848A1.419,1.419,0,0,1,846.02,439.675Z" transform="translate(-252.323 -391.875)"/>
    <path id="Path_57" data-name="Path 57" d="M785.283,115.52h-.021a4.15,4.15,0,0,0-4.122,4.129,4.145,4.145,0,0,0,4.118,4.118h.028a4.123,4.123,0,0,0,0-8.247Zm2.829,4.1a2.8,2.8,0,0,1-.816,2.006,2.843,2.843,0,0,1-2.021.863h-.017a2.87,2.87,0,0,1-2.843-2.842,2.872,2.872,0,0,1,2.856-2.856h.014A2.855,2.855,0,0,1,788.111,119.624Z" transform="translate(-196.104 -101.228)"/>
    <path id="Path_58" data-name="Path 58" d="M701.371,122c.087-.158.179-.321.273-.484q.071.2.155.407l.158.382,1.222-.506-.158-.382a3.968,3.968,0,0,1,1.109-4.9l1.012-.933-1.361-.207a3.592,3.592,0,0,0-2.832.685,9.516,9.516,0,0,0-3.175,4.169c-.111.281-.2.554-.3.843-.043.13-.087.263-.133.4l-.3.876h4.138Zm-2.482-.98c.037-.1.074-.207.114-.307a8.213,8.213,0,0,1,2.739-3.6,2.6,2.6,0,0,1,.342-.219,4.935,4.935,0,0,0-.789,2.569l-.052.094c-.15.271-.316.558-.492.861-.109.188-.23.4-.346.6Z" transform="translate(-118.96 -101.044)"/>
    <path id="Path_59" data-name="Path 59" d="M867.37,116.574a3.968,3.968,0,0,1,1.12,4.922l-.158.382,1.222.506.158-.382q.084-.2.154-.4l.124.218a1.105,1.105,0,0,0,.85.6c.532.013,1.047.014,1.481.014H874.4l-.232-.837a9.625,9.625,0,0,0-3.885-5.652,3.672,3.672,0,0,0-2.522-.512l-1.511.125Zm2.054.385q.057.033.112.071a8.1,8.1,0,0,1,3.092,4.077c-.521,0-1.024,0-1.527-.009l-.181-.318c-.221-.387-.449-.788-.637-1.143l-.066-.124A4.93,4.93,0,0,0,869.424,116.959Z" transform="translate(-274.181 -101.117)"/>
  </g>
</svg>
