<svg xmlns="http://www.w3.org/2000/svg" width="41.592" height="36.15" viewBox="0 0 41.592 36.15">
  <g id="icon1" transform="translate(-506.443 -233.618)">
    <path id="Path_27" data-name="Path 27" d="M547.824,375.2a14.588,14.588,0,0,1-1.413,2.751,1.535,1.535,0,0,1-1.127.439c-2.254.04-4.509.02-6.761.02-9.572,0-19.142-.029-28.712.033-1.274.009-2.019-.342-2.4-1.538-.286-.9-.686-1.762-.925-2.669-.16-.6.146-.954.848-.952,4.653.016,9.306.009,14.07.009.182.841.364,1.555.484,2.279a.9.9,0,0,0,1.032.879q4.323-.03,8.647,0c.624,0,.888-.226,1.038-.856.552-2.308.581-2.3,3.029-2.3q5.432,0,10.864,0C547.915,373.3,548.339,373.84,547.824,375.2Z" transform="translate(0 -108.681)"/>
    <path id="Path_28" data-name="Path 28" d="M580.679,268.772a5.889,5.889,0,0,0-6.716.9,5.752,5.752,0,0,0-1.919,6.386,5.365,5.365,0,0,1,.029,3.3c-.328,1.092-.1,1.3.985.99a5.385,5.385,0,0,1,3.286.047c3.927,1.234,7.895-1.837,7.906-6.568A5.861,5.861,0,0,0,580.679,268.772Zm-4.382,2.913c1.143-.04,2.288-.04,3.428,0,.182.007.355.282.533.433-.193.166-.373.455-.584.479a15.657,15.657,0,0,1-1.768.024,11.184,11.184,0,0,1-1.544-.024c-.215-.029-.395-.308-.59-.475C575.947,271.972,576.117,271.692,576.3,271.686Zm3.521,5.432c-1.214.04-2.43.033-3.643,0-.138,0-.408-.333-.375-.422.071-.191.286-.444.466-.461.584-.058,1.176-.02,1.764-.02v0c.59,0,1.183-.027,1.768.018.164.013.459.291.435.364C580.169,276.8,579.972,277.113,579.819,277.117Zm.9-2.232c-.914.064-1.837.024-2.756.024-.883,0-1.766.04-2.645-.024-.286-.022-.55-.324-.825-.5.253-.16.5-.448.761-.455q2.756-.057,5.512,0c.26.007.513.291.768.446C581.263,274.557,581,274.865,580.719,274.885Z" transform="translate(-50.812 -26.84)"/>
    <path id="Path_29" data-name="Path 29" d="M520.911,267c-.262,1.231-.5,2.341-.746,3.521h-2.5v19.033h-3.612v-1.16q0-9.083,0-18.164c0-2.3.921-3.226,3.2-3.231C518.441,266.994,519.619,267,520.911,267Z" transform="translate(-5.923 -25.971)"/>
    <path id="Path_30" data-name="Path 30" d="M662,289.784c0,.029-.044.055-.135.162h-3.333v-19.04h-2.589c-.251-1.194-.479-2.27-.719-3.4a43.069,43.069,0,0,1,5.05.051,2.121,2.121,0,0,1,1.742,2.281C662.034,276.489,662.01,283.136,662,289.784Z" transform="translate(-115.765 -26.329)"/>
    <path id="Path_31" data-name="Path 31" d="M570.027,248.267a7.511,7.511,0,0,1-1.717-.888,1.8,1.8,0,0,1-.331-1.271,9.819,9.819,0,0,0-13.608-9.648c-3.821,1.7-6.02,4.677-5.944,8.909.031,1.731-.712,2.39-2.168,2.867-.5-8.782,4.475-14.762,12.1-14.616C565.9,233.767,570.888,240,570.027,248.267Z" transform="translate(-30.954 0)"/>
    <path id="Path_32" data-name="Path 32" d="M605.042,303.679c.027.87-.641,1.316-1.824,1.422-.533.737-1.03,1.349-1.433,2.017a2.429,2.429,0,0,0-.282,1.112,2.619,2.619,0,0,1-2.849,2.825c-.961.016-1.924,0-2.885,0-1.005.009-1.948-.1-2.809.812-.821.874-2.645.721-3.637.02a1.535,1.535,0,0,1,0-2.669,3.5,3.5,0,0,1,4.034.235,2.619,2.619,0,0,0,1.413.575c1.216.08,2.438.033,3.659.024,1.731-.011,2.192-.557,1.986-2.5-1.18.186-1.354-.464-1.334-1.389.042-1.773.036-3.55,0-5.323-.013-.8.293-1.138,1.109-1.123,1.451.024,2.272.708,2.749,2.439C603.937,302.221,605,302.308,605.042,303.679Z" transform="translate(-63.886 -51.433)"/>
    <path id="Path_33" data-name="Path 33" d="M543.03,306.6c0,.706-.359.959-1.043.965-1.456.011-2.274-.659-2.858-2.452-.994-.018-1.946-.211-2.048-1.464-.073-.888.6-1.345,2.041-1.5.619-1.808,1.449-2.478,2.927-2.43.628.02.979.253.979.91Q543.028,303.617,543.03,306.6Z" transform="translate(-23.836 -51.434)"/>
    <path id="Path_34" data-name="Path 34" d="M588.174,373.83l-.448,2.012h-8.762c-.133-.626-.264-1.254-.424-2.012Z" transform="translate(-56.1 -109.101)"/>
    <path id="Path_35" data-name="Path 35" d="M565.476,267a27.636,27.636,0,0,1-2.8,3.228c-.488.424-1.462.288-2.31.419.064-.521.082-.814.138-1.1.453-2.325.723-2.549,3.038-2.549Z" transform="translate(-41.961 -25.975)"/>
    <path id="Path_36" data-name="Path 36" d="M623.025,270.355c-1.626.45-1.981.313-2.9-.956-.588-.814-1.218-1.6-1.835-2.4h1.722c2.161,0,2.254.067,2.8,2.17C622.914,269.561,622.956,269.964,623.025,270.355Z" transform="translate(-87.03 -25.975)"/>
  </g>
</svg>
