<svg xmlns="http://www.w3.org/2000/svg" width="37.739" height="40.448" viewBox="0 0 37.739 40.448">
  <g id="icon2" transform="translate(-495.136 -208.946)">
    <path id="Path_37" data-name="Path 37" d="M532.825,242.849a2.526,2.526,0,0,0-2.721-2.586c-.427-.008-.854.033-1.279-.008-1.031-.1-1.355.394-1.3,1.363.054,1,.013,2,.013,3.01H500.477c0-1.1.038-2.123-.02-3.133a1.537,1.537,0,0,0-.442-1.087c-1.445-.926-4.468.054-4.67,1.7a30.93,30.93,0,0,0-.023,6.964c.161,1.527,1.437,1.964,3.793,1.936.969-.013,1.414-.363,1.373-1.363-.043-1.041-.01-2.087-.01-3.089h2.777a27.334,27.334,0,0,1-.028,3.785,10.4,10.4,0,0,0,3.652,9.979,1.935,1.935,0,0,1,.714,1.153c.074,1.852.033,3.711.033,5.56H504.05v-5.24h-1.731c0,2.6-.087,5.066.028,7.524a3.352,3.352,0,0,0,3.371,3.2q8.305.054,16.615,0a3.136,3.136,0,0,0,3.163-2.652c.156-2.657.044-5.33.044-8.056h-1.713v5.238h-3.381c-.419-3.4-.491-6.621,2.509-8.989A3.973,3.973,0,0,0,524,256.784a5.206,5.206,0,0,0,.734-2.054c.084-2.713.033-5.429.033-8.207h2.767c0,1.115-.038,2.171.02,3.22a1.523,1.523,0,0,0,.442,1.082,3.357,3.357,0,0,0,4.828-2.483C532.9,246.514,532.884,244.677,532.825,242.849Zm-25.108,3.665h3c2.811,0,5.624.028,8.434-.015.846-.013,1.125.276,1.1,1.1-.043,1.66.015,3.325-.023,4.984a3.448,3.448,0,0,1-3.312,2.757c.867-1.286,1.56-2.642.949-4.148a5.615,5.615,0,0,0-1.5-2.143,3.931,3.931,0,0,0-5.056.189c-1.693,1.453-1.8,3.266-.34,6.087-1.174.153-3.215-1.381-3.245-2.534C507.679,250.754,507.717,248.718,507.717,246.514Zm8.539,5.764a2.334,2.334,0,0,1-2.233,2.32,2.283,2.283,0,0,1-2.281-2.248,2.257,2.257,0,0,1,4.514-.072Zm7.6,16.784c-.189,1.1-.767,1.7-1.805,1.7q-8.048.023-16.1,0a1.793,1.793,0,0,1-1.857-1.7Zm-.91-14.321a1.951,1.951,0,0,1-.455.992A10.161,10.161,0,0,1,521.1,257.4a7.632,7.632,0,0,0-2.6,7.286,17.214,17.214,0,0,1,.018,2.412h-9.053c0-1.9.056-3.718-.031-5.534a5.5,5.5,0,0,0-.644-1.836,2.124,2.124,0,0,0-.57-.68,9.3,9.3,0,0,1-3.238-8.961c.128-.875-.018-1.788.038-2.678a2.87,2.87,0,0,1,.414-.905c.153.292.43.578.435.875.041,1.785.079,3.578,0,5.363a3.357,3.357,0,0,0,.982,2.353,5.432,5.432,0,0,0,5.3,2.2,35.013,35.013,0,0,1,5.358-.018,3.391,3.391,0,0,0,2.458-1.02,5.241,5.241,0,0,0,2.1-5.092,23.594,23.594,0,0,1-.008-3.826,2.956,2.956,0,0,1,.419-.962l.491.207C522.967,249.3,522.982,252.022,522.946,254.741Z" transform="translate(0 -23.151)"/>
    <path id="Path_38" data-name="Path 38" d="M546.45,212.54a3.462,3.462,0,0,0-3.552-3.568q-8.109-.054-16.221,0a3.423,3.423,0,0,0-3.47,3.128c-.143,2.189-.033,4.394-.033,6.68.632.033,1.151.061,1.79.1v-4.417h19.751v4.455l1.744-.143C546.458,216.619,546.488,214.579,546.45,212.54Zm-21.525-.069a1.875,1.875,0,0,1,2-1.711q7.914,0,15.825,0a1.832,1.832,0,0,1,1.959,1.708Z" transform="translate(-20.836)"/>
  </g>
</svg>
